<mxfile host="Electron" agent="Mozilla/5.0 (Windows NT 10.0; Win64; x64) AppleWebKit/537.36 (KHTML, like Gecko) draw.io/24.7.8 Chrome/128.0.6613.36 Electron/32.0.1 Safari/537.36" version="24.7.8">
  <diagram id="C5RBs43oDa-KdzZeNtuy" name="Page-1">
    <mxGraphModel dx="880" dy="572" grid="1" gridSize="10" guides="1" tooltips="1" connect="1" arrows="1" fold="1" page="1" pageScale="1" pageWidth="827" pageHeight="1169" math="0" shadow="0">
      <root>
        <mxCell id="WIyWlLk6GJQsqaUBKTNV-0" />
        <mxCell id="WIyWlLk6GJQsqaUBKTNV-1" parent="WIyWlLk6GJQsqaUBKTNV-0" />
        <mxCell id="MOBSj0AvmrUCmAS8dExk-1" style="edgeStyle=orthogonalEdgeStyle;rounded=0;orthogonalLoop=1;jettySize=auto;html=1;exitX=0.5;exitY=1;exitDx=0;exitDy=0;entryX=0.5;entryY=0;entryDx=0;entryDy=0;" edge="1" parent="WIyWlLk6GJQsqaUBKTNV-1" source="WIyWlLk6GJQsqaUBKTNV-3" target="MOBSj0AvmrUCmAS8dExk-0">
          <mxGeometry relative="1" as="geometry" />
        </mxCell>
        <mxCell id="WIyWlLk6GJQsqaUBKTNV-3" value="Main" style="rounded=1;whiteSpace=wrap;html=1;fontSize=12;glass=0;strokeWidth=1;shadow=0;" parent="WIyWlLk6GJQsqaUBKTNV-1" vertex="1">
          <mxGeometry x="160" y="80" width="120" height="40" as="geometry" />
        </mxCell>
        <mxCell id="MOBSj0AvmrUCmAS8dExk-3" style="edgeStyle=orthogonalEdgeStyle;rounded=0;orthogonalLoop=1;jettySize=auto;html=1;exitX=0.5;exitY=1;exitDx=0;exitDy=0;entryX=0.5;entryY=0;entryDx=0;entryDy=0;" edge="1" parent="WIyWlLk6GJQsqaUBKTNV-1" source="MOBSj0AvmrUCmAS8dExk-0" target="MOBSj0AvmrUCmAS8dExk-2">
          <mxGeometry relative="1" as="geometry" />
        </mxCell>
        <mxCell id="MOBSj0AvmrUCmAS8dExk-0" value="lag valuta objekter mednavn og kurs." style="rounded=1;whiteSpace=wrap;html=1;" vertex="1" parent="WIyWlLk6GJQsqaUBKTNV-1">
          <mxGeometry x="160" y="160" width="120" height="60" as="geometry" />
        </mxCell>
        <mxCell id="MOBSj0AvmrUCmAS8dExk-8" style="edgeStyle=orthogonalEdgeStyle;rounded=0;orthogonalLoop=1;jettySize=auto;html=1;exitX=0.5;exitY=1;exitDx=0;exitDy=0;" edge="1" parent="WIyWlLk6GJQsqaUBKTNV-1" source="MOBSj0AvmrUCmAS8dExk-2" target="MOBSj0AvmrUCmAS8dExk-4">
          <mxGeometry relative="1" as="geometry" />
        </mxCell>
        <mxCell id="MOBSj0AvmrUCmAS8dExk-2" value="skriv ut valg av valuta" style="rounded=1;whiteSpace=wrap;html=1;" vertex="1" parent="WIyWlLk6GJQsqaUBKTNV-1">
          <mxGeometry x="160" y="290" width="120" height="60" as="geometry" />
        </mxCell>
        <mxCell id="MOBSj0AvmrUCmAS8dExk-4" value="er input et gyldig tall?" style="rhombus;whiteSpace=wrap;html=1;" vertex="1" parent="WIyWlLk6GJQsqaUBKTNV-1">
          <mxGeometry x="180" y="400" width="80" height="80" as="geometry" />
        </mxCell>
        <mxCell id="MOBSj0AvmrUCmAS8dExk-6" value="" style="endArrow=classic;html=1;rounded=0;exitX=0.5;exitY=1;exitDx=0;exitDy=0;entryX=0.5;entryY=0;entryDx=0;entryDy=0;" edge="1" parent="WIyWlLk6GJQsqaUBKTNV-1" source="MOBSj0AvmrUCmAS8dExk-4" target="MOBSj0AvmrUCmAS8dExk-15">
          <mxGeometry relative="1" as="geometry">
            <mxPoint x="460" y="490" as="sourcePoint" />
            <mxPoint x="220" y="540" as="targetPoint" />
          </mxGeometry>
        </mxCell>
        <mxCell id="MOBSj0AvmrUCmAS8dExk-7" value="ja" style="edgeLabel;resizable=0;html=1;;align=center;verticalAlign=middle;" connectable="0" vertex="1" parent="MOBSj0AvmrUCmAS8dExk-6">
          <mxGeometry relative="1" as="geometry" />
        </mxCell>
        <mxCell id="MOBSj0AvmrUCmAS8dExk-9" value="" style="endArrow=classic;html=1;rounded=0;exitX=1;exitY=0.5;exitDx=0;exitDy=0;entryX=0;entryY=0.5;entryDx=0;entryDy=0;" edge="1" parent="WIyWlLk6GJQsqaUBKTNV-1" source="MOBSj0AvmrUCmAS8dExk-4" target="MOBSj0AvmrUCmAS8dExk-11">
          <mxGeometry relative="1" as="geometry">
            <mxPoint x="460" y="490" as="sourcePoint" />
            <mxPoint x="370" y="440" as="targetPoint" />
          </mxGeometry>
        </mxCell>
        <mxCell id="MOBSj0AvmrUCmAS8dExk-10" value="nei" style="edgeLabel;resizable=0;html=1;;align=center;verticalAlign=middle;" connectable="0" vertex="1" parent="MOBSj0AvmrUCmAS8dExk-9">
          <mxGeometry relative="1" as="geometry" />
        </mxCell>
        <mxCell id="MOBSj0AvmrUCmAS8dExk-14" style="edgeStyle=orthogonalEdgeStyle;rounded=0;orthogonalLoop=1;jettySize=auto;html=1;exitX=0.5;exitY=0;exitDx=0;exitDy=0;entryX=0.5;entryY=0;entryDx=0;entryDy=0;" edge="1" parent="WIyWlLk6GJQsqaUBKTNV-1" source="MOBSj0AvmrUCmAS8dExk-11" target="MOBSj0AvmrUCmAS8dExk-4">
          <mxGeometry relative="1" as="geometry">
            <Array as="points">
              <mxPoint x="450" y="380" />
              <mxPoint x="220" y="380" />
            </Array>
          </mxGeometry>
        </mxCell>
        <mxCell id="MOBSj0AvmrUCmAS8dExk-11" value="forklarende feilmelding" style="rounded=1;whiteSpace=wrap;html=1;" vertex="1" parent="WIyWlLk6GJQsqaUBKTNV-1">
          <mxGeometry x="390" y="410" width="120" height="60" as="geometry" />
        </mxCell>
        <mxCell id="MOBSj0AvmrUCmAS8dExk-19" style="edgeStyle=orthogonalEdgeStyle;rounded=0;orthogonalLoop=1;jettySize=auto;html=1;exitX=1;exitY=0.5;exitDx=0;exitDy=0;entryX=0;entryY=0.5;entryDx=0;entryDy=0;" edge="1" parent="WIyWlLk6GJQsqaUBKTNV-1" source="MOBSj0AvmrUCmAS8dExk-15" target="MOBSj0AvmrUCmAS8dExk-16">
          <mxGeometry relative="1" as="geometry" />
        </mxCell>
        <mxCell id="MOBSj0AvmrUCmAS8dExk-20" value="Ja" style="edgeLabel;html=1;align=center;verticalAlign=middle;resizable=0;points=[];" vertex="1" connectable="0" parent="MOBSj0AvmrUCmAS8dExk-19">
          <mxGeometry x="-0.0615" y="-1" relative="1" as="geometry">
            <mxPoint as="offset" />
          </mxGeometry>
        </mxCell>
        <mxCell id="MOBSj0AvmrUCmAS8dExk-22" value="" style="edgeStyle=orthogonalEdgeStyle;rounded=0;orthogonalLoop=1;jettySize=auto;html=1;" edge="1" parent="WIyWlLk6GJQsqaUBKTNV-1" source="MOBSj0AvmrUCmAS8dExk-15" target="MOBSj0AvmrUCmAS8dExk-21">
          <mxGeometry relative="1" as="geometry" />
        </mxCell>
        <mxCell id="MOBSj0AvmrUCmAS8dExk-15" value="er inpu avslutt?" style="rhombus;whiteSpace=wrap;html=1;" vertex="1" parent="WIyWlLk6GJQsqaUBKTNV-1">
          <mxGeometry x="180" y="560" width="80" height="80" as="geometry" />
        </mxCell>
        <mxCell id="MOBSj0AvmrUCmAS8dExk-16" value="avslutt program." style="rounded=1;whiteSpace=wrap;html=1;" vertex="1" parent="WIyWlLk6GJQsqaUBKTNV-1">
          <mxGeometry x="390" y="570" width="120" height="60" as="geometry" />
        </mxCell>
        <mxCell id="MOBSj0AvmrUCmAS8dExk-42" style="edgeStyle=orthogonalEdgeStyle;rounded=0;orthogonalLoop=1;jettySize=auto;html=1;exitX=0.5;exitY=1;exitDx=0;exitDy=0;entryX=0.5;entryY=0;entryDx=0;entryDy=0;" edge="1" parent="WIyWlLk6GJQsqaUBKTNV-1" source="MOBSj0AvmrUCmAS8dExk-21" target="MOBSj0AvmrUCmAS8dExk-28">
          <mxGeometry relative="1" as="geometry" />
        </mxCell>
        <mxCell id="MOBSj0AvmrUCmAS8dExk-21" value="sett et tomt valutaobjekt til det valgt valuta" style="rounded=1;whiteSpace=wrap;html=1;arcSize=20;" vertex="1" parent="WIyWlLk6GJQsqaUBKTNV-1">
          <mxGeometry x="160" y="730" width="120" height="60" as="geometry" />
        </mxCell>
        <mxCell id="MOBSj0AvmrUCmAS8dExk-27" style="edgeStyle=orthogonalEdgeStyle;rounded=0;orthogonalLoop=1;jettySize=auto;html=1;exitX=0.5;exitY=1;exitDx=0;exitDy=0;" edge="1" parent="WIyWlLk6GJQsqaUBKTNV-1" source="MOBSj0AvmrUCmAS8dExk-28" target="MOBSj0AvmrUCmAS8dExk-29">
          <mxGeometry relative="1" as="geometry" />
        </mxCell>
        <mxCell id="MOBSj0AvmrUCmAS8dExk-28" value="skriv til eller fra nok" style="rounded=1;whiteSpace=wrap;html=1;" vertex="1" parent="WIyWlLk6GJQsqaUBKTNV-1">
          <mxGeometry x="160" y="860" width="120" height="60" as="geometry" />
        </mxCell>
        <mxCell id="MOBSj0AvmrUCmAS8dExk-29" value="er input et gyldig tall?" style="rhombus;whiteSpace=wrap;html=1;" vertex="1" parent="WIyWlLk6GJQsqaUBKTNV-1">
          <mxGeometry x="180" y="970" width="80" height="80" as="geometry" />
        </mxCell>
        <mxCell id="MOBSj0AvmrUCmAS8dExk-30" value="" style="endArrow=classic;html=1;rounded=0;exitX=0.5;exitY=1;exitDx=0;exitDy=0;entryX=0.5;entryY=0;entryDx=0;entryDy=0;" edge="1" parent="WIyWlLk6GJQsqaUBKTNV-1" source="MOBSj0AvmrUCmAS8dExk-29" target="MOBSj0AvmrUCmAS8dExk-39">
          <mxGeometry relative="1" as="geometry">
            <mxPoint x="460" y="1060" as="sourcePoint" />
            <mxPoint x="220" y="1110" as="targetPoint" />
          </mxGeometry>
        </mxCell>
        <mxCell id="MOBSj0AvmrUCmAS8dExk-31" value="ja" style="edgeLabel;resizable=0;html=1;;align=center;verticalAlign=middle;" connectable="0" vertex="1" parent="MOBSj0AvmrUCmAS8dExk-30">
          <mxGeometry relative="1" as="geometry" />
        </mxCell>
        <mxCell id="MOBSj0AvmrUCmAS8dExk-32" value="" style="endArrow=classic;html=1;rounded=0;exitX=1;exitY=0.5;exitDx=0;exitDy=0;entryX=0;entryY=0.5;entryDx=0;entryDy=0;" edge="1" parent="WIyWlLk6GJQsqaUBKTNV-1" source="MOBSj0AvmrUCmAS8dExk-29" target="MOBSj0AvmrUCmAS8dExk-35">
          <mxGeometry relative="1" as="geometry">
            <mxPoint x="460" y="1060" as="sourcePoint" />
            <mxPoint x="370" y="1010" as="targetPoint" />
          </mxGeometry>
        </mxCell>
        <mxCell id="MOBSj0AvmrUCmAS8dExk-33" value="nei" style="edgeLabel;resizable=0;html=1;;align=center;verticalAlign=middle;" connectable="0" vertex="1" parent="MOBSj0AvmrUCmAS8dExk-32">
          <mxGeometry relative="1" as="geometry" />
        </mxCell>
        <mxCell id="MOBSj0AvmrUCmAS8dExk-34" style="edgeStyle=orthogonalEdgeStyle;rounded=0;orthogonalLoop=1;jettySize=auto;html=1;exitX=0.5;exitY=0;exitDx=0;exitDy=0;entryX=0.5;entryY=0;entryDx=0;entryDy=0;" edge="1" parent="WIyWlLk6GJQsqaUBKTNV-1" source="MOBSj0AvmrUCmAS8dExk-35" target="MOBSj0AvmrUCmAS8dExk-29">
          <mxGeometry relative="1" as="geometry">
            <Array as="points">
              <mxPoint x="450" y="950" />
              <mxPoint x="220" y="950" />
            </Array>
          </mxGeometry>
        </mxCell>
        <mxCell id="MOBSj0AvmrUCmAS8dExk-35" value="forklarende feilmelding" style="rounded=1;whiteSpace=wrap;html=1;" vertex="1" parent="WIyWlLk6GJQsqaUBKTNV-1">
          <mxGeometry x="390" y="980" width="120" height="60" as="geometry" />
        </mxCell>
        <mxCell id="MOBSj0AvmrUCmAS8dExk-36" style="edgeStyle=orthogonalEdgeStyle;rounded=0;orthogonalLoop=1;jettySize=auto;html=1;exitX=1;exitY=0.5;exitDx=0;exitDy=0;entryX=0;entryY=0.5;entryDx=0;entryDy=0;" edge="1" parent="WIyWlLk6GJQsqaUBKTNV-1" source="MOBSj0AvmrUCmAS8dExk-39" target="MOBSj0AvmrUCmAS8dExk-40">
          <mxGeometry relative="1" as="geometry" />
        </mxCell>
        <mxCell id="MOBSj0AvmrUCmAS8dExk-37" value="Ja" style="edgeLabel;html=1;align=center;verticalAlign=middle;resizable=0;points=[];" vertex="1" connectable="0" parent="MOBSj0AvmrUCmAS8dExk-36">
          <mxGeometry x="-0.0615" y="-1" relative="1" as="geometry">
            <mxPoint as="offset" />
          </mxGeometry>
        </mxCell>
        <mxCell id="MOBSj0AvmrUCmAS8dExk-38" value="" style="edgeStyle=orthogonalEdgeStyle;rounded=0;orthogonalLoop=1;jettySize=auto;html=1;" edge="1" parent="WIyWlLk6GJQsqaUBKTNV-1" source="MOBSj0AvmrUCmAS8dExk-39" target="MOBSj0AvmrUCmAS8dExk-41">
          <mxGeometry relative="1" as="geometry" />
        </mxCell>
        <mxCell id="MOBSj0AvmrUCmAS8dExk-39" value="er inpu avslutt?" style="rhombus;whiteSpace=wrap;html=1;" vertex="1" parent="WIyWlLk6GJQsqaUBKTNV-1">
          <mxGeometry x="180" y="1130" width="80" height="80" as="geometry" />
        </mxCell>
        <mxCell id="MOBSj0AvmrUCmAS8dExk-40" value="avslutt program." style="rounded=1;whiteSpace=wrap;html=1;" vertex="1" parent="WIyWlLk6GJQsqaUBKTNV-1">
          <mxGeometry x="390" y="1140" width="120" height="60" as="geometry" />
        </mxCell>
        <mxCell id="MOBSj0AvmrUCmAS8dExk-58" style="edgeStyle=orthogonalEdgeStyle;rounded=0;orthogonalLoop=1;jettySize=auto;html=1;exitX=0.5;exitY=1;exitDx=0;exitDy=0;entryX=0.5;entryY=0;entryDx=0;entryDy=0;" edge="1" parent="WIyWlLk6GJQsqaUBKTNV-1" source="MOBSj0AvmrUCmAS8dExk-41" target="MOBSj0AvmrUCmAS8dExk-44">
          <mxGeometry relative="1" as="geometry" />
        </mxCell>
        <mxCell id="MOBSj0AvmrUCmAS8dExk-41" value="sett en variabel til om det er til eller fra nok" style="rounded=1;whiteSpace=wrap;html=1;arcSize=20;" vertex="1" parent="WIyWlLk6GJQsqaUBKTNV-1">
          <mxGeometry x="160" y="1280" width="120" height="60" as="geometry" />
        </mxCell>
        <mxCell id="MOBSj0AvmrUCmAS8dExk-43" style="edgeStyle=orthogonalEdgeStyle;rounded=0;orthogonalLoop=1;jettySize=auto;html=1;exitX=0.5;exitY=1;exitDx=0;exitDy=0;" edge="1" parent="WIyWlLk6GJQsqaUBKTNV-1" source="MOBSj0AvmrUCmAS8dExk-44" target="MOBSj0AvmrUCmAS8dExk-45">
          <mxGeometry relative="1" as="geometry" />
        </mxCell>
        <mxCell id="MOBSj0AvmrUCmAS8dExk-44" value="skriv inn antall som skal regnes om" style="rounded=1;whiteSpace=wrap;html=1;" vertex="1" parent="WIyWlLk6GJQsqaUBKTNV-1">
          <mxGeometry x="160" y="1390" width="120" height="60" as="geometry" />
        </mxCell>
        <mxCell id="MOBSj0AvmrUCmAS8dExk-45" value="er input et gyldig tall?" style="rhombus;whiteSpace=wrap;html=1;" vertex="1" parent="WIyWlLk6GJQsqaUBKTNV-1">
          <mxGeometry x="180" y="1500" width="80" height="80" as="geometry" />
        </mxCell>
        <mxCell id="MOBSj0AvmrUCmAS8dExk-46" value="" style="endArrow=classic;html=1;rounded=0;exitX=0.5;exitY=1;exitDx=0;exitDy=0;entryX=0.5;entryY=0;entryDx=0;entryDy=0;" edge="1" parent="WIyWlLk6GJQsqaUBKTNV-1" source="MOBSj0AvmrUCmAS8dExk-45" target="MOBSj0AvmrUCmAS8dExk-55">
          <mxGeometry relative="1" as="geometry">
            <mxPoint x="460" y="1590" as="sourcePoint" />
            <mxPoint x="220" y="1640" as="targetPoint" />
          </mxGeometry>
        </mxCell>
        <mxCell id="MOBSj0AvmrUCmAS8dExk-47" value="ja" style="edgeLabel;resizable=0;html=1;;align=center;verticalAlign=middle;" connectable="0" vertex="1" parent="MOBSj0AvmrUCmAS8dExk-46">
          <mxGeometry relative="1" as="geometry" />
        </mxCell>
        <mxCell id="MOBSj0AvmrUCmAS8dExk-48" value="" style="endArrow=classic;html=1;rounded=0;exitX=1;exitY=0.5;exitDx=0;exitDy=0;entryX=0;entryY=0.5;entryDx=0;entryDy=0;" edge="1" parent="WIyWlLk6GJQsqaUBKTNV-1" source="MOBSj0AvmrUCmAS8dExk-45" target="MOBSj0AvmrUCmAS8dExk-51">
          <mxGeometry relative="1" as="geometry">
            <mxPoint x="460" y="1590" as="sourcePoint" />
            <mxPoint x="370" y="1540" as="targetPoint" />
          </mxGeometry>
        </mxCell>
        <mxCell id="MOBSj0AvmrUCmAS8dExk-49" value="nei" style="edgeLabel;resizable=0;html=1;;align=center;verticalAlign=middle;" connectable="0" vertex="1" parent="MOBSj0AvmrUCmAS8dExk-48">
          <mxGeometry relative="1" as="geometry" />
        </mxCell>
        <mxCell id="MOBSj0AvmrUCmAS8dExk-50" style="edgeStyle=orthogonalEdgeStyle;rounded=0;orthogonalLoop=1;jettySize=auto;html=1;exitX=0.5;exitY=0;exitDx=0;exitDy=0;entryX=0.5;entryY=0;entryDx=0;entryDy=0;" edge="1" parent="WIyWlLk6GJQsqaUBKTNV-1" source="MOBSj0AvmrUCmAS8dExk-51" target="MOBSj0AvmrUCmAS8dExk-45">
          <mxGeometry relative="1" as="geometry">
            <Array as="points">
              <mxPoint x="450" y="1480" />
              <mxPoint x="220" y="1480" />
            </Array>
          </mxGeometry>
        </mxCell>
        <mxCell id="MOBSj0AvmrUCmAS8dExk-51" value="forklarende feilmelding" style="rounded=1;whiteSpace=wrap;html=1;" vertex="1" parent="WIyWlLk6GJQsqaUBKTNV-1">
          <mxGeometry x="390" y="1510" width="120" height="60" as="geometry" />
        </mxCell>
        <mxCell id="MOBSj0AvmrUCmAS8dExk-52" style="edgeStyle=orthogonalEdgeStyle;rounded=0;orthogonalLoop=1;jettySize=auto;html=1;exitX=1;exitY=0.5;exitDx=0;exitDy=0;entryX=0;entryY=0.5;entryDx=0;entryDy=0;" edge="1" parent="WIyWlLk6GJQsqaUBKTNV-1" source="MOBSj0AvmrUCmAS8dExk-55" target="MOBSj0AvmrUCmAS8dExk-56">
          <mxGeometry relative="1" as="geometry" />
        </mxCell>
        <mxCell id="MOBSj0AvmrUCmAS8dExk-53" value="Ja" style="edgeLabel;html=1;align=center;verticalAlign=middle;resizable=0;points=[];" vertex="1" connectable="0" parent="MOBSj0AvmrUCmAS8dExk-52">
          <mxGeometry x="-0.0615" y="-1" relative="1" as="geometry">
            <mxPoint as="offset" />
          </mxGeometry>
        </mxCell>
        <mxCell id="MOBSj0AvmrUCmAS8dExk-59" style="edgeStyle=orthogonalEdgeStyle;rounded=0;orthogonalLoop=1;jettySize=auto;html=1;exitX=0.5;exitY=1;exitDx=0;exitDy=0;" edge="1" parent="WIyWlLk6GJQsqaUBKTNV-1" source="MOBSj0AvmrUCmAS8dExk-55">
          <mxGeometry relative="1" as="geometry">
            <mxPoint x="220" y="1820" as="targetPoint" />
          </mxGeometry>
        </mxCell>
        <mxCell id="MOBSj0AvmrUCmAS8dExk-60" value="Nei" style="edgeLabel;html=1;align=center;verticalAlign=middle;resizable=0;points=[];" vertex="1" connectable="0" parent="MOBSj0AvmrUCmAS8dExk-59">
          <mxGeometry x="-0.0448" y="-1" relative="1" as="geometry">
            <mxPoint as="offset" />
          </mxGeometry>
        </mxCell>
        <mxCell id="MOBSj0AvmrUCmAS8dExk-55" value="er input avslutt?" style="rhombus;whiteSpace=wrap;html=1;" vertex="1" parent="WIyWlLk6GJQsqaUBKTNV-1">
          <mxGeometry x="180" y="1660" width="80" height="80" as="geometry" />
        </mxCell>
        <mxCell id="MOBSj0AvmrUCmAS8dExk-56" value="avslutt program." style="rounded=1;whiteSpace=wrap;html=1;" vertex="1" parent="WIyWlLk6GJQsqaUBKTNV-1">
          <mxGeometry x="390" y="1670" width="120" height="60" as="geometry" />
        </mxCell>
        <mxCell id="MOBSj0AvmrUCmAS8dExk-61" value="skriv ut utregning med full setning basert på tidligere valg" style="rounded=1;whiteSpace=wrap;html=1;" vertex="1" parent="WIyWlLk6GJQsqaUBKTNV-1">
          <mxGeometry x="160" y="1820" width="120" height="60" as="geometry" />
        </mxCell>
      </root>
    </mxGraphModel>
  </diagram>
</mxfile>
